<?xml version="1.0" encoding="UTF-8" standalone="no"?>
<svg version="1.1" id="layer" x="0px" y="0px" viewBox="-153 -46 80 120" xml:space="preserve" width="80" height="120" xmlns="http://www.w3.org/2000/svg" xmlns:svg="http://www.w3.org/2000/svg">
<path id="path3437" style="fill:#000000" d="M -113.08008 -22.494141 C -125.10733 -22.494141 -135.80115 -16.623833 -142.43359 -7.6113281 L -83.630859 -7.6113281 C -90.295036 -16.655567 -100.98936 -22.494141 -113.08008 -22.494141 z M -143.57617 -5.9609375 C -146.0197 -2.216305 -147.82775 2.004982 -148.74805 6.5429688 L -110.76367 6.5429688 C -110.57327 3.5916906 -109.11245 1.1799251 -106.47852 -0.75585938 C -103.52724 -2.8185807 -99.783579 -3.8027344 -95.150391 -3.8027344 C -92.802061 -3.8027344 -90.516799 -3.611763 -88.263672 -3.1992188 C -86.010546 -2.6914721 -84.136988 -2.1200268 -82.455078 -1.421875 L -82.455078 6.5429688 L -77.283203 6.5429688 C -78.235228 2.004982 -80.011547 -2.216305 -82.455078 -5.9609375 L -143.57617 -5.9609375 z M -94.863281 2.6074219 C -95.656635 2.6074219 -96.355567 2.7016729 -97.117188 2.796875 C -97.910542 2.8920779 -98.608973 3.0830488 -99.275391 3.4003906 C -99.87834 3.5907956 -100.35358 4.0039555 -100.86133 4.3847656 C -101.24214 4.8607781 -101.56055 5.463457 -101.56055 6.0664062 C -101.56055 6.2568114 -101.52789 6.4155479 -101.49609 6.5742188 L -83.566406 6.5742188 C -84.899241 5.4317885 -86.644778 4.5428701 -88.548828 3.78125 C -90.611549 2.9878956 -92.673623 2.6074219 -94.863281 2.6074219 z M -149.03516 8.2246094 C -149.32077 10.096926 -149.47852 12.001716 -149.47852 13.9375 C -149.47852 15.46074 -149.38377 16.983103 -149.19336 18.474609 L -97.783203 18.474609 C -98.005342 18.442869 -98.196314 18.378906 -98.386719 18.378906 C -99.878225 18.093299 -101.24235 17.681592 -102.51172 17.300781 C -105.49473 16.285288 -107.5568 15.015896 -108.82617 13.333984 C -110.00033 11.969416 -110.60353 10.223862 -110.73047 8.2246094 L -149.03516 8.2246094 z M -100.44922 8.2246094 C -99.751062 8.7323561 -98.385487 9.1138311 -96.417969 9.5898438 C -95.148602 9.7802488 -93.943696 10.06497 -92.769531 10.287109 C -91.500165 10.572717 -90.294257 10.984424 -88.929688 11.365234 C -86.168815 12.25379 -84.201007 13.428415 -82.931641 14.919922 C -82.106551 15.935415 -81.598108 17.141774 -81.3125 18.474609 L -76.806641 18.474609 C -76.616236 16.983103 -76.521484 15.492474 -76.521484 13.9375 C -76.521484 12.001716 -76.679236 10.096926 -76.964844 8.2246094 L -100.44922 8.2246094 z M -81.091797 20.125 C -81.091797 20.34714 -81.058594 20.568392 -81.058594 20.822266 C -81.058594 23.995682 -82.265437 26.534935 -84.582031 28.597656 L -79.630859 28.597656 C -78.456696 25.931986 -77.599543 23.076278 -77.091797 20.125 L -81.091797 20.125 z M -148.9707 20.15625 C -148.46295 23.107528 -147.6058 25.963236 -146.43164 28.628906 L -111.01758 28.628906 L -111.01758 21.425781 L -110.0332 21.425781 C -108.16088 22.917287 -106.09736 24.091411 -103.8125 24.884766 C -101.43244 25.67812 -99.179909 26.058594 -97.117188 26.058594 C -96.514238 26.058594 -95.847541 26.058091 -94.958984 25.962891 C -94.070428 25.867691 -93.276293 25.678686 -92.705078 25.488281 C -92.006926 25.202674 -91.531184 24.789013 -91.023438 24.408203 C -90.515691 24.027394 -90.326172 23.330464 -90.326172 22.537109 C -90.326172 21.712021 -90.707597 21.013122 -91.310547 20.537109 C -91.469218 20.378439 -91.659205 20.251452 -91.849609 20.15625 L -148.9707 20.15625 z M -145.66992 30.152344 C -144.36882 32.78628 -142.75122 35.22978 -140.87891 37.451172 L -85.152344 37.451172 C -83.280028 35.22978 -81.662429 32.78628 -80.361328 30.152344 L -86.771484 30.152344 L -86.771484 30.183594 C -89.532358 31.738568 -93.023028 32.533203 -97.402344 32.533203 C -100.25842 32.533203 -102.8284 32.247982 -104.98633 31.740234 C -106.76344 31.327691 -108.38253 30.787027 -109.9375 30.152344 L -145.66992 30.152344 z M -139.48242 39.039062 C -137.26102 41.387391 -134.72181 43.448948 -131.96094 45.130859 L -94.101562 45.130859 C -91.308955 43.448948 -88.803424 41.387391 -86.582031 39.039062 L -139.48242 39.039062 z M -128.91406 46.845703 C -124.1222 49.162298 -118.76049 50.494141 -113.08008 50.494141 C -107.36792 50.494141 -101.97155 49.194032 -97.179688 46.845703 L -128.91406 46.845703 z " />
</svg>
